<svg width="36" height="36" viewBox="0 0 36 36" fill="none" xmlns="http://www.w3.org/2000/svg">
<path d="M18.0031 22.4625C17.8031 22.4625 17.6096 22.4249 17.4226 22.3499C17.2346 22.2749 17.0781 22.1749 16.9531 22.0499L10.0531 15.15C9.77812 14.875 9.64062 14.525 9.64062 14.1C9.64062 13.675 9.77812 13.325 10.0531 13.05C10.3281 12.775 10.6781 12.6375 11.1031 12.6375C11.5281 12.6375 11.8781 12.775 12.1531 13.05L18.0031 18.9L23.8531 13.05C24.1281 12.775 24.4781 12.6375 24.9031 12.6375C25.3281 12.6375 25.6781 12.775 25.9531 13.05C26.2281 13.325 26.3656 13.675 26.3656 14.1C26.3656 14.525 26.2281 14.875 25.9531 15.15L19.0531 22.0499C18.9031 22.2 18.7406 22.3059 18.5656 22.3679C18.3906 22.4309 18.2031 22.4625 18.0031 22.4625Z" fill="#C4C4C4"/>
</svg>
