<svg width="50" height="50" viewBox="0 0 50 50" fill="none" xmlns="http://www.w3.org/2000/svg">
<path d="M25.0007 44.0476C35.5205 44.0476 44.0484 35.5197 44.0484 25C44.0484 14.4803 35.5205 5.95239 25.0007 5.95239C14.481 5.95239 5.95312 14.4803 5.95312 25C5.95312 35.5197 14.481 44.0476 25.0007 44.0476Z" stroke="#545454" stroke-width="2.38095" stroke-linecap="round" stroke-linejoin="round"/>
<path d="M19.045 21.4286C20.36 21.4286 21.426 20.3626 21.426 19.0476C21.426 17.7327 20.36 16.6667 19.045 16.6667C17.7301 16.6667 16.6641 17.7327 16.6641 19.0476C16.6641 20.3626 17.7301 21.4286 19.045 21.4286Z" fill="#545454"/>
<path d="M30.9513 21.4286C32.2662 21.4286 33.3322 20.3626 33.3322 19.0476C33.3322 17.7327 32.2662 16.6667 30.9513 16.6667C29.6363 16.6667 28.5703 17.7327 28.5703 19.0476C28.5703 20.3626 29.6363 21.4286 30.9513 21.4286Z" fill="#545454"/>
<path d="M17.8594 29.7619H32.1451" stroke="#545454" stroke-width="2.38095" stroke-linecap="round" stroke-linejoin="round"/>
</svg>
